<?xml version="1.0" standalone="no"?>
<!DOCTYPE svg PUBLIC "-//W3C//DTD SVG 20010904//EN"
 "http://www.w3.org/TR/2001/REC-SVG-20010904/DTD/svg10.dtd">
<svg version="1.0" xmlns="http://www.w3.org/2000/svg"
 width="700.000000pt" height="700.000000pt" viewBox="0 0 700.000000 700.000000"
 preserveAspectRatio="xMidYMid meet">
<metadata>
Created by potrace 1.14, written by Peter Selinger 2001-2017
</metadata>
<g transform="translate(0.000000,700.000000) scale(0.100000,-0.100000)"
fill="#000000" stroke="none">
<path d="M636 6984 c-176 -42 -332 -188 -390 -364 -27 -82 -32 -211 -12 -290
63 -250 278 -420 531 -421 152 0 277 52 387 162 247 247 200 653 -98 845 -112
72 -285 100 -418 68z"/>
<path d="M6120 6989 c-66 -14 -199 -82 -246 -126 -125 -116 -184 -247 -184
-408 0 -248 169 -468 406 -529 195 -50 386 3 529 148 208 211 205 551 -6 764
-60 61 -159 120 -234 141 -56 16 -211 22 -265 10z"/>
<path d="M1601 6334 c-91 -39 -88 -174 4 -201 17 -5 839 -9 1900 -8 1533 0
1876 3 1902 14 40 16 67 70 59 115 -4 18 -20 46 -37 62 l-30 29 -1886 0
c-1363 0 -1893 -3 -1912 -11z"/>
<path d="M665 5790 c-355 -48 -638 -347 -661 -696 -6 -95 8 -134 54 -158 40
-21 1374 -21 1414 0 59 30 72 118 41 259 -87 387 -458 647 -848 595z"/>
<path d="M6135 5789 c-95 -13 -120 -20 -195 -52 -186 -80 -329 -222 -409 -404
-55 -127 -79 -313 -45 -361 35 -50 22 -50 744 -50 549 0 681 2 708 14 48 20
66 69 58 160 -38 434 -434 753 -861 693z"/>
<path d="M3348 5245 c-2 -2 -30 -6 -63 -9 -302 -32 -639 -176 -890 -381 -270
-221 -477 -531 -574 -860 -19 -66 -23 -82 -36 -152 -3 -16 -10 -53 -16 -83 -6
-30 -13 -131 -14 -225 -6 -307 50 -557 186 -828 230 -458 677 -806 1174 -913
51 -11 115 -23 165 -30 68 -11 379 -11 440 -1 107 17 169 29 220 43 70 20 169
52 195 64 11 5 45 19 75 32 116 48 315 170 410 252 84 73 221 217 278 294 34
45 62 84 62 87 0 2 14 24 30 49 46 68 135 259 170 366 33 100 64 234 77 335
10 77 10 365 0 430 -21 141 -53 278 -77 340 -4 11 -18 47 -31 80 -213 565
-720 978 -1339 1091 -82 15 -431 30 -442 19z m231 -580 c25 -24 26 -31 29
-158 l3 -133 221 1 c122 0 235 -4 252 -10 42 -14 77 -68 70 -109 -3 -17 -12
-41 -20 -53 -29 -45 -55 -49 -296 -48 l-228 1 0 -273 0 -273 103 -1 c56 0 111
-2 122 -4 11 -2 36 -7 55 -10 153 -28 316 -188 359 -352 43 -158 -7 -347 -120
-463 -108 -111 -212 -151 -397 -154 l-117 -2 -5 -131 c-5 -122 -7 -133 -29
-157 -48 -51 -115 -50 -162 0 -22 24 -24 36 -29 157 l-5 132 -232 0 c-219 1
-234 2 -260 21 -15 12 -34 38 -41 59 -11 33 -10 43 5 74 31 62 50 66 306 65
l227 0 0 273 0 273 -98 0 c-54 0 -125 5 -158 11 -147 27 -284 133 -349 270
-39 84 -48 126 -48 219 1 125 53 249 140 336 107 107 208 145 390 147 l123 2
0 120 c0 133 8 157 58 191 40 27 92 19 131 -21z"/>
<path d="M3152 4145 c-202 -60 -265 -317 -111 -459 62 -58 120 -76 244 -76
l105 0 0 273 0 273 -100 0 c-56 0 -117 -5 -138 -11z"/>
<path d="M3610 3116 l0 -273 108 2 c126 4 140 6 196 39 79 46 137 153 131 240
-6 83 -25 127 -78 181 -69 68 -119 85 -254 85 l-103 0 0 -274z"/>
<path d="M691 4669 c-18 -18 -31 -42 -32 -57 -7 -171 -2 -2214 5 -2237 27 -87
141 -104 191 -28 19 27 19 66 20 1133 0 608 -1 1117 -3 1133 -3 15 -17 41 -32
57 -23 25 -36 30 -73 30 -37 0 -51 -5 -76 -31z"/>
<path d="M6183 4690 c-12 -5 -30 -21 -40 -36 -17 -26 -18 -86 -18 -1133 -1
-608 2 -1122 7 -1141 14 -67 91 -100 156 -66 59 30 56 -30 57 1169 0 606 -2
1114 -3 1128 -7 47 -43 81 -92 85 -25 2 -55 0 -67 -6z"/>
<path d="M631 2059 c-254 -65 -427 -303 -408 -563 11 -145 58 -249 162 -352
99 -100 232 -156 369 -157 188 -1 346 78 455 227 201 276 92 674 -222 815
-110 50 -236 60 -356 30z"/>
<path d="M6120 2065 c-427 -92 -578 -633 -259 -929 113 -105 227 -150 379
-149 154 2 270 51 382 164 133 135 186 322 143 507 -56 237 -264 407 -510 416
-44 2 -105 -2 -135 -9z"/>
<path d="M670 868 c-369 -53 -643 -344 -666 -707 -4 -65 -2 -81 15 -109 12
-18 33 -37 47 -42 15 -6 289 -10 709 -10 l684 0 36 35 37 34 -5 88 c-21 334
-248 608 -574 693 -88 23 -201 30 -283 18z"/>
<path d="M1602 863 c-84 -28 -94 -131 -19 -187 l28 -20 1894 -1 1894 0 30 29
c55 53 50 124 -12 170 l-28 21 -1877 0 c-1394 0 -1885 -3 -1910 -12z"/>
<path d="M6105 863 c-154 -26 -289 -97 -406 -212 -105 -105 -175 -222 -205
-343 -2 -10 -6 -28 -9 -40 -3 -13 -8 -62 -12 -109 -6 -85 -6 -86 25 -120 l30
-34 696 -3 c770 -3 728 -6 763 61 31 60 0 243 -63 372 -50 102 -57 113 -120
183 -176 198 -437 289 -699 245z"/>
</g>
</svg>
