<svg xmlns="http://www.w3.org/2000/svg" viewBox="0 0 64 64"><title>Artboard-35</title><g id="Partnership"><circle cx="7" cy="5" r="5" style="fill:#232328"/><path d="M1,19H13a1,1,0,0,0,1-1A7,7,0,0,0,0,18,1,1,0,0,0,1,19Z" style="fill:#232328"/><circle cx="57" cy="5" r="5" style="fill:#232328"/><path d="M64,18a7,7,0,0,0-14,0,1,1,0,0,0,1,1H63A1,1,0,0,0,64,18Z" style="fill:#232328"/><circle cx="7" cy="50" r="5" style="fill:#232328"/><path d="M7,56a7.009,7.009,0,0,0-7,7,1,1,0,0,0,1,1H13a1,1,0,0,0,1-1A7.009,7.009,0,0,0,7,56Z" style="fill:#232328"/><circle cx="57" cy="50" r="5" style="fill:#232328"/><path d="M57,56a7.009,7.009,0,0,0-7,7,1,1,0,0,0,1,1H63a1,1,0,0,0,1-1A7.009,7.009,0,0,0,57,56Z" style="fill:#232328"/><path d="M8,42V22a1,1,0,0,0-2,0V42a1,1,0,0,0,2,0Z" style="fill:#232328"/><path d="M58,42V22a1,1,0,0,0-2,0V42a1,1,0,0,0,2,0Z" style="fill:#232328"/><path d="M15,8H49a1,1,0,0,0,0-2H15a1,1,0,0,0,0,2Z" style="fill:#232328"/><path d="M49,56H15a1,1,0,0,0,0,2H49a1,1,0,0,0,0-2Z" style="fill:#232328"/><path d="M27,28.5A2.5,2.5,0,0,0,29.5,31H31V26H29.5A2.5,2.5,0,0,0,27,28.5Z" style="fill:#232328"/><path d="M37,35.5A2.5,2.5,0,0,0,34.5,33H33v5h1.5A2.5,2.5,0,0,0,37,35.5Z" style="fill:#232328"/><path d="M16,32A16,16,0,1,0,32,16,16.019,16.019,0,0,0,16,32ZM33,22v2h4a1,1,0,0,1,0,2H33v5h1.5a4.5,4.5,0,0,1,0,9H33v2a1,1,0,0,1-2,0V40H27a1,1,0,0,1,0-2h4V33H29.5a4.5,4.5,0,0,1,0-9H31V22a1,1,0,0,1,2,0Z" style="fill:#232328"/></g></svg>